<?xml version="1.0" standalone="no"?>
<!DOCTYPE svg PUBLIC "-//W3C//DTD SVG 20010904//EN"
 "http://www.w3.org/TR/2001/REC-SVG-20010904/DTD/svg10.dtd">
<svg version="1.0" xmlns="http://www.w3.org/2000/svg"
 width="314.000000pt" height="314.000000pt" viewBox="0 0 314.000000 314.000000"
 preserveAspectRatio="xMidYMid meet">
<metadata>
Created by potrace 1.11, written by Peter Selinger 2001-2013
</metadata>
<g transform="translate(0.000000,314.000000) scale(0.100000,-0.100000)"
fill="#000000" stroke="none">
<path d="M2207 2964 c-1 -1 -40 -4 -87 -7 -370 -26 -715 -264 -880 -607 -58
-119 -95 -260 -104 -390 -3 -30 -5 -60 -5 -66 -2 -19 -202 -2 -361 31 -35 7
-68 12 -71 9 -4 -2 -9 -1 -11 3 -1 5 -50 24 -107 43 -167 55 -396 179 -513
278 -77 65 -72 69 -64 -43 16 -257 65 -440 177 -667 122 -248 340 -503 553
-644 31 -20 56 -39 56 -42 0 -3 -12 -21 -27 -41 -100 -131 -253 -272 -400
-368 -45 -30 -85 -57 -87 -62 -13 -21 350 -168 456 -185 18 -3 58 -10 88 -16
125 -25 338 -32 485 -17 277 28 545 126 785 287 306 206 547 523 664 872 19
58 37 117 40 130 39 189 45 238 51 398 5 130 16 188 52 275 42 99 131 214 209
267 19 13 34 26 34 29 0 4 -29 45 -64 92 -107 144 -229 247 -381 321 -89 44
-186 81 -235 90 -14 2 -36 7 -50 10 -24 7 -199 24 -203 20z"/>
</g>
</svg>
