<svg id="Layer_1" data-name="Layer 1" xmlns="http://www.w3.org/2000/svg" xmlns:xlink="http://www.w3.org/1999/xlink" viewBox="0 0 790.11 279.7"><defs><style>.cls-1{font-size:96.51px;stroke:#000;stroke-miterlimit:10;font-family:FuturaBT-ExtraBlack, Futura XBlk BT;}.cls-2{fill:url(#linear-gradient);}.cls-3{fill:url(#linear-gradient-2);}.cls-4{fill:url(#linear-gradient-3);}.cls-5{fill:url(#linear-gradient-4);}.cls-6{fill:url(#linear-gradient-5);}.cls-7{fill:url(#linear-gradient-6);}.cls-8{fill:#ed1c24;}</style><linearGradient id="linear-gradient" x1="105.77" y1="487.27" x2="162.35" y2="574.55" gradientUnits="userSpaceOnUse"><stop offset="0"/><stop offset="1" stop-color="#333"/></linearGradient><linearGradient id="linear-gradient-2" x1="82.91" y1="387.42" x2="171.89" y2="524.68" xlink:href="#linear-gradient"/><linearGradient id="linear-gradient-3" x1="80.73" y1="306.91" x2="223.8" y2="527.62" xlink:href="#linear-gradient"/><linearGradient id="linear-gradient-4" x1="142.3" y1="342.93" x2="260.8" y2="459.93" xlink:href="#linear-gradient"/><linearGradient id="linear-gradient-5" x1="254.39" y1="301.52" x2="295.39" y2="364.77" gradientUnits="userSpaceOnUse"><stop offset="0" stop-color="#ffab11"/><stop offset="1" stop-color="#ff3a5f"/></linearGradient><linearGradient id="linear-gradient-6" x1="218.46" y1="283.91" x2="290.31" y2="394.75" xlink:href="#linear-gradient-5"/></defs><title>logo_side_writing</title><g id="Logo_with_Text" data-name="Logo with Text"><text class="cls-1" transform="translate(318.6 169.8)">DRONGO</text><g id="Bird"><path id="Tail" class="cls-2" d="M242.11,515.75A172.35,172.35,0,0,1,81.67,502.89a172.93,172.93,0,0,1-53,47.23,172.18,172.18,0,0,0,213.47-34.37Z" transform="translate(-1.9 -293.1)"/><path id="Torso" class="cls-3" d="M115.31,400.67a172.42,172.42,0,0,1-44-5.7q-.15,2.83-.15,5.7A107.68,107.68,0,0,0,200.78,506,107.61,107.61,0,0,1,115.31,400.67Z" transform="translate(-1.9 -293.1)"/><path id="Wing" class="cls-4" d="M200.78,506A107.59,107.59,0,0,1,71.11,400.67q0-2.87.15-5.7A171.64,171.64,0,0,1,1.9,358,172.2,172.2,0,0,0,242.11,515.75q4.94-5.47,9.38-11.37a171.38,171.38,0,0,0,34.75-103.71A107.61,107.61,0,0,1,200.78,506Z" transform="translate(-1.9 -293.1)"/><path id="Head" class="cls-5" d="M256.74,326.67a107.33,107.33,0,0,0-56-31.29,107.59,107.59,0,0,0,0,210.58,107.58,107.58,0,0,0,56-179.29Zm-56-12a21.48,21.48,0,1,1-21.48,21.48A21.48,21.48,0,0,1,200.78,314.65Z" transform="translate(-1.9 -293.1)"/><path id="Beak" class="cls-6" d="M270.07,304a106.1,106.1,0,0,0-18.58-7,171.45,171.45,0,0,1,34.75,103.71,64.47,64.47,0,0,1,29.55-54.22A108.12,108.12,0,0,0,270.07,304Z" transform="translate(-1.9 -293.1)"/><path id="Beak-2" data-name="Beak" class="cls-7" d="M263.8,315.64A171.59,171.59,0,0,0,251.49,297a108.08,108.08,0,0,0-50.71-1.58,107.62,107.62,0,0,1,85.41,102A171.2,171.2,0,0,0,263.8,315.64Z" transform="translate(-1.9 -293.1)"/><circle id="Eye" class="cls-8" cx="200.78" cy="336.13" r="21.48" transform="translate(-180.77 -52.68) rotate(-45)"/><circle id="Eye-2" data-name="Eye" cx="200.78" cy="336.13" r="13.28" transform="translate(-180.77 -52.68) rotate(-45)"/></g></g></svg>