<svg id="Layer_1" data-name="Layer 1" xmlns="http://www.w3.org/2000/svg" xmlns:xlink="http://www.w3.org/1999/xlink" viewBox="0 0 313.9 279.7"><defs><style>.cls-1{fill:url(#linear-gradient);}.cls-2{fill:url(#linear-gradient-2);}.cls-3{fill:url(#linear-gradient-3);}.cls-4{fill:url(#linear-gradient-4);}.cls-5{fill:url(#linear-gradient-5);}.cls-6{fill:url(#linear-gradient-6);}.cls-7{fill:#ed1c24;}</style><linearGradient id="linear-gradient" x1="342.93" y1="364.11" x2="399.51" y2="451.39" gradientUnits="userSpaceOnUse"><stop offset="0"/><stop offset="1" stop-color="#333"/></linearGradient><linearGradient id="linear-gradient-2" x1="320.07" y1="264.26" x2="409.05" y2="401.52" xlink:href="#linear-gradient"/><linearGradient id="linear-gradient-3" x1="317.89" y1="183.75" x2="460.96" y2="404.46" xlink:href="#linear-gradient"/><linearGradient id="linear-gradient-4" x1="379.46" y1="219.77" x2="497.96" y2="336.77" xlink:href="#linear-gradient"/><linearGradient id="linear-gradient-5" x1="491.54" y1="178.36" x2="532.54" y2="241.61" gradientUnits="userSpaceOnUse"><stop offset="0" stop-color="#ffab11"/><stop offset="1" stop-color="#ff3a5f"/></linearGradient><linearGradient id="linear-gradient-6" x1="455.62" y1="160.76" x2="527.46" y2="271.59" xlink:href="#linear-gradient-5"/></defs><title>Logo</title><g id="Logo_with_Text" data-name="Logo with Text"><g id="Bird"><path id="Tail" class="cls-1" d="M479.27,392.59a172.35,172.35,0,0,1-160.44-12.86,172.93,172.93,0,0,1-53,47.23,172.18,172.18,0,0,0,213.47-34.37Z" transform="translate(-239.05 -169.94)"/><path id="Torso" class="cls-2" d="M352.47,277.51a172.42,172.42,0,0,1-44.05-5.7q-.15,2.83-.15,5.7A107.67,107.67,0,0,0,437.93,382.8,107.61,107.61,0,0,1,352.47,277.51Z" transform="translate(-239.05 -169.94)"/><path id="Wing" class="cls-3" d="M437.93,382.8A107.59,107.59,0,0,1,308.27,277.51q0-2.86.15-5.7a171.74,171.74,0,0,1-69.37-37A172.21,172.21,0,0,0,479.27,392.59q4.92-5.47,9.38-11.37A171.38,171.38,0,0,0,523.4,277.51,107.61,107.61,0,0,1,437.93,382.8Z" transform="translate(-239.05 -169.94)"/><path id="Head" class="cls-4" d="M493.9,203.51a107.4,107.4,0,0,0-56-31.29,107.59,107.59,0,0,0,0,210.58,107.58,107.58,0,0,0,56-179.29Zm-56-12A21.48,21.48,0,1,1,416.45,213,21.47,21.47,0,0,1,437.93,191.49Z" transform="translate(-239.05 -169.94)"/><path id="Beak" class="cls-5" d="M507.22,180.82a107.1,107.1,0,0,0-18.57-7A173.07,173.07,0,0,1,501,192.48a171.31,171.31,0,0,1,22.44,85A64.45,64.45,0,0,1,553,223.29,108.08,108.08,0,0,0,507.22,180.82Z" transform="translate(-239.05 -169.94)"/><path id="Beak-2" data-name="Beak" class="cls-6" d="M501,192.48a173.07,173.07,0,0,0-12.31-18.68,108.13,108.13,0,0,0-50.72-1.58,107.59,107.59,0,0,1,85.41,102A171.31,171.31,0,0,0,501,192.48Z" transform="translate(-239.05 -169.94)"/><circle id="Eye" class="cls-7" cx="437.93" cy="212.97" r="21.48" transform="translate(-261.38 202.1) rotate(-45)"/><circle id="Eye-2" data-name="Eye" cx="437.93" cy="212.97" r="13.28" transform="translate(-261.38 202.1) rotate(-45)"/></g></g></svg>